<svg xmlns="http://www.w3.org/2000/svg" viewBox="0 0 84.32 28.4"><defs><style>.cls-1{fill:#231f20;}</style></defs><path d="M.48,3.64a1.68,1.68,0,0,1,1-.44c.45,0,.87.31,1.24.92q.12.17.24,6a43.76,43.76,0,0,0,.24,6.16l.16.44H5.64a47.14,47.14,0,0,0,7.52-.84,10.61,10.61,0,0,1,1.68-.16,1.26,1.26,0,0,1,1.08.48,1.56,1.56,0,0,1,.32.92,1.24,1.24,0,0,1-.84,1.28,15,15,0,0,1-3.76.68c-1.92.19-3.12.33-3.6.44a7.39,7.39,0,0,1-1.6.12l-1.52,0a11.78,11.78,0,0,1-3.32-.4A2.14,2.14,0,0,1,.28,17.92,50,50,0,0,1,0,10.72L0,4.08ZM20,.92a2.17,2.17,0,0,1,.64-.08c.59,0,.95.15,1.08.44A7.21,7.21,0,0,1,22,3.56c.05,1,.08,1.87.08,2.56l0,2.12,0,1.64a3.83,3.83,0,0,0,.12,1.32.68.68,0,0,0,.44.28,15.93,15.93,0,0,0,1.68,0,7.35,7.35,0,0,1,2.84.36,1.18,1.18,0,0,1,.6,1.08,1.92,1.92,0,0,1-.12.78.76.76,0,0,1-.48.38,8,8,0,0,1-2.16.2c-1.79,0-2.73.17-2.84.52a7.26,7.26,0,0,0-.06,1c0,.48,0,1.07-.06,1.76,0,.4,0,1.4-.08,3-.08,3-.16,4.84-.24,5.56A1.91,1.91,0,0,1,21,27.48a1.67,1.67,0,0,1-.72.12A1.72,1.72,0,0,1,19,27.24a2.09,2.09,0,0,1-.24-1l0-1.56,0-3c0-3.57,0-5.41.08-5.52s.12-2.49.2-7.16l.08-7,.4-.52A3.48,3.48,0,0,1,20,.92Z"/><path d="M29.2,9.3A1,1,0,0,1,30,8.86l2-.2q1.76-.12,6.48-.12a32.82,32.82,0,0,1,5,.16,1.54,1.54,0,0,1,.92,1,1,1,0,0,1,0,.32,1.37,1.37,0,0,1-.36.88,2.08,2.08,0,0,1-1.16.56,15.55,15.55,0,0,1-2.88.16h-.56a7.09,7.09,0,0,0-1.84.12c-.16.08-.27.4-.32.95v.64a2.29,2.29,0,0,0,.12.8,1.61,1.61,0,0,0,.76.8c.59.48,1.64,1.47,3.16,3a32.34,32.34,0,0,1,2.76,3,1.16,1.16,0,0,1,.2.68.88.88,0,0,1-.52.8,1.78,1.78,0,0,1-1,.27,2.11,2.11,0,0,1-1.32-.51,13.17,13.17,0,0,1-1.76-1.8L38.56,19a9,9,0,0,0-1.32-1.28,4.05,4.05,0,0,0-1.08-.68c-.29,0-.92.79-1.88,2.35-.48.8-1,1.65-1.68,2.56a6.32,6.32,0,0,1-1.16,1.39,1.34,1.34,0,0,1-.76.24,1.69,1.69,0,0,1-.6-.12,1.33,1.33,0,0,1-.84-1V22.3a2.26,2.26,0,0,1,.24-1,15.06,15.06,0,0,1,1.28-2l1-1.39c.51-.69.77-1,.8-1.08l1-1.43a3.16,3.16,0,0,0,.56-1.08,4.91,4.91,0,0,0,.16-1.48c0-.66,0-1.05-.16-1.15a6.71,6.71,0,0,0-2.2-.16H30l-.56-.48a1.23,1.23,0,0,1-.56-1A1.36,1.36,0,0,1,29.2,9.3Zm2.36-4.55a1.15,1.15,0,0,1,.36-.84,1.29,1.29,0,0,1,.68-.32,21,21,0,0,1,2.16-.12c1-.05,2.19-.08,3.52-.08a7.51,7.51,0,0,1,1.56.08,1.34,1.34,0,0,1,1.08,1.44c0,.61-.39,1-1.16,1.23a23.77,23.77,0,0,1-3.84.16,17.19,17.19,0,0,1-3.52-.16,1.42,1.42,0,0,1-.8-1.07A1,1,0,0,1,31.56,4.75ZM55.28,1a1.21,1.21,0,0,1,.8.36l.44.36V27l-.4.32a1.59,1.59,0,0,1-.92.28H55a2,2,0,0,1-.76-.16c-.29-.13-.45-.58-.48-1.36s-.12-2.51-.12-5.22l0-5.22-.4-.08a7.08,7.08,0,0,0-1.08,0c-1.44,0-2.24.09-2.4.28a21.13,21.13,0,0,0-.12,3.39q0,6.86-.6,7.65a1.15,1.15,0,0,1-1.08.48,5.44,5.44,0,0,1-.68-.08,1.07,1.07,0,0,1-.72-.6,5.67,5.67,0,0,1-.16-1.83q0-1.15.08-7.66c.11-5,.16-8.84.16-11.44a7.83,7.83,0,0,1,.28-2.92,1.32,1.32,0,0,1,1-.71l.24,0a1.15,1.15,0,0,1,.84.36,2,2,0,0,1,.56,1.31c0,.91.08,2.41.08,4.51l0,2.07a20.88,20.88,0,0,0,0,2.12,3.19,3.19,0,0,0,1.4.16,17.42,17.42,0,0,0,1.84-.08,1.86,1.86,0,0,0,.72-.16,46.87,46.87,0,0,0,.12-5.23V2l.52-.56A1.46,1.46,0,0,1,55.28,1Z"/><path d="M61.48,7.52a1.45,1.45,0,0,1,1.12-.6,13.65,13.65,0,0,1,1.44,0c1.07,0,2,0,2.68,0L69,7a9.93,9.93,0,0,0,2-.12A.83.83,0,0,0,71.76,6s0-.11,0-.24c.13-1.07.2-1.64.2-1.72a.33.33,0,0,0-.32-.28l0,0a8.74,8.74,0,0,0-1.32,0c-1.28,0-2.41,0-3.4,0a10.23,10.23,0,0,0-1.12,0l-1.4,0a10.56,10.56,0,0,1-1.16,0,2.54,2.54,0,0,1-1.12-.16c-.48-.24-.72-.55-.72-.92a1.07,1.07,0,0,1,.12-.48,1.14,1.14,0,0,1,.88-.76,13.2,13.2,0,0,1,2.68-.16l4.36-.12C71,1,72.2,1,72.92,1a3.42,3.42,0,0,1,1.32.32,1.84,1.84,0,0,1,.92,1,3.76,3.76,0,0,1,.08,1A15.47,15.47,0,0,1,75.16,5a9,9,0,0,1-.4,2.68,2.11,2.11,0,0,1-1.12,1.12A3.81,3.81,0,0,1,72.52,9c-.77.08-1.79.15-3,.2l-4.28.24a1.6,1.6,0,0,0-1,.28A3.39,3.39,0,0,0,64,11.08q0,2,.24,2.16a9.53,9.53,0,0,0,2.32.12c1.23,0,2.24,0,3,0s1.19,0,1.48,0l1.84,0c.59,0,1.09,0,1.52,0a1.88,1.88,0,0,1,1.28.48.94.94,0,0,1,.32.64,1.16,1.16,0,0,1-.2.6,1.29,1.29,0,0,1-1.2.76l-1.52,0L64,16a7.16,7.16,0,0,1-2-.2,1.19,1.19,0,0,1-.72-.84A9.28,9.28,0,0,1,61.12,13c0-.8,0-1.45,0-2A12.37,12.37,0,0,1,61.48,7.52Zm4.2,12.12a2.28,2.28,0,0,1,.2-1,1.39,1.39,0,0,1,.68-.68,44.2,44.2,0,0,1,5.72-.16h2.56l7.92.08.48.32a2.16,2.16,0,0,1,.8,1.4c0,.59,0,2.28-.12,5.08a13.09,13.09,0,0,1-.28,2.56,1.77,1.77,0,0,1-.76.92,3.73,3.73,0,0,1-1.48.24H74.84a.76.76,0,0,0-.32,0c-4.24-.05-6.64-.11-7.2-.16A1.37,1.37,0,0,1,66,27.32s0,0,0,0a32.67,32.67,0,0,1-.28-4.36C65.63,21.19,65.63,20.09,65.68,19.64Zm2.92,5.52.16.36H74.6a47.44,47.44,0,0,0,6.08-.16,1,1,0,0,0,.28-.6,5.8,5.8,0,0,0,0-1l0-.92.08-2.2-.36-.08c-.24-.05-2.05-.11-5.44-.16H72.76c-1.87,0-2.91,0-3.12,0a1.94,1.94,0,0,0-1,.2,9,9,0,0,0-.2,3A5.67,5.67,0,0,0,68.6,25.16ZM83,0a1.41,1.41,0,0,1,1,.36,2.83,2.83,0,0,1,.24,1.28q0,.76,0,6.64v7.6l-.36.44a1.26,1.26,0,0,1-1,.4H82.8a1.4,1.4,0,0,1-.88-.32,2.25,2.25,0,0,1-.6-1.56l0-1.48.08-4.2L81.6,2A2.82,2.82,0,0,1,82,.4,1.7,1.7,0,0,1,83,0Z"/></svg>