<svg xmlns="http://www.w3.org/2000/svg" viewBox="0 0 84.32 28.4"><defs><style>.cls-1{fill:#231f20;}.cls-2{fill:#27aae1;}.cls-3{font-size:11.57px;fill:#8dc63f;font-family:omyu_pretty, omyu pretty;}</style></defs><path d="M.48,3.64a1.68,1.68,0,0,1,1-.44c.45,0,.87.31,1.24.92q.12.17.24,6a43.76,43.76,0,0,0,.24,6.16l.16.44H5.64a47.14,47.14,0,0,0,7.52-.84,10.61,10.61,0,0,1,1.68-.16,1.26,1.26,0,0,1,1.08.48,1.56,1.56,0,0,1,.32.92,1.24,1.24,0,0,1-.84,1.28,15,15,0,0,1-3.76.68c-1.92.19-3.12.33-3.6.44a7.39,7.39,0,0,1-1.6.12l-1.52,0a11.78,11.78,0,0,1-3.32-.4A2.14,2.14,0,0,1,.28,17.92,50,50,0,0,1,0,10.72L0,4.08ZM20,.92a2.17,2.17,0,0,1,.64-.08c.59,0,.95.15,1.08.44A7.21,7.21,0,0,1,22,3.56c.05,1,.08,1.87.08,2.56l0,2.12,0,1.64a3.83,3.83,0,0,0,.12,1.32.68.68,0,0,0,.44.28,15.93,15.93,0,0,0,1.68,0,7.35,7.35,0,0,1,2.84.36,1.18,1.18,0,0,1,.6,1.08,1.92,1.92,0,0,1-.12.78.76.76,0,0,1-.48.38,8,8,0,0,1-2.16.2c-1.79,0-2.73.17-2.84.52a7.26,7.26,0,0,0-.06,1c0,.48,0,1.07-.06,1.76,0,.4,0,1.4-.08,3-.08,3-.16,4.84-.24,5.56A1.91,1.91,0,0,1,21,27.48a1.67,1.67,0,0,1-.72.12A1.72,1.72,0,0,1,19,27.24a2.09,2.09,0,0,1-.24-1l0-1.56,0-3c0-3.57,0-5.41.08-5.52s.12-2.49.2-7.16l.08-7,.4-.52A3.48,3.48,0,0,1,20,.92Z"/><path d="M29.2,17.81a1.45,1.45,0,0,1,.76-.23l2-.11q1.76-.06,6.48-.06c3.15,0,4.81,0,5,.08.51.13.81.31.92.54a.27.27,0,0,1,0,.17c0,.15-.12.31-.36.46a2.93,2.93,0,0,1-1.16.3,28,28,0,0,1-2.88.09h-.56a14,14,0,0,0-1.84.06c-.16,0-.27.21-.32.51V20a.75.75,0,0,0,.12.43,1.42,1.42,0,0,0,.76.42c.59.26,1.64.79,3.16,1.6A28.91,28.91,0,0,1,44.12,24a.45.45,0,0,1,.2.36c0,.18-.17.33-.52.42a2.93,2.93,0,0,1-1,.15,3.39,3.39,0,0,1-1.32-.27,13.31,13.31,0,0,1-1.76-1L38.56,23a8.83,8.83,0,0,0-1.32-.69A5.41,5.41,0,0,0,36.16,22c-.29,0-.92.42-1.88,1.26-.48.42-1,.88-1.68,1.36a5.72,5.72,0,0,1-1.16.75,2.37,2.37,0,0,1-.76.12,3.21,3.21,0,0,1-.6-.06c-.48-.11-.76-.3-.84-.55v-.09a.79.79,0,0,1,.24-.51,9.38,9.38,0,0,1,1.28-1l1-.75c.51-.37.77-.56.8-.57l1-.77a1.69,1.69,0,0,0,.56-.57,1.51,1.51,0,0,0,.16-.79c0-.36,0-.56-.16-.62a13.9,13.9,0,0,0-2.2-.08H30l-.56-.26c-.37-.15-.56-.32-.56-.51A.59.59,0,0,1,29.2,17.81Zm2.36-2.42q0-.25.36-.45a1.75,1.75,0,0,1,.68-.17q.43,0,2.16-.06c1,0,2.19-.05,3.52-.05a12.22,12.22,0,0,1,1.56.05c.72.09,1.08.35,1.08.76s-.39.55-1.16.66q-.6.09-3.84.09a30.91,30.91,0,0,1-3.52-.09c-.45-.13-.72-.32-.8-.57A.31.31,0,0,1,31.56,15.39Zm23.72-2a1.82,1.82,0,0,1,.8.2l.44.19V27.24l-.4.17a2.41,2.41,0,0,1-.92.15H55a4.18,4.18,0,0,1-.76-.08c-.29-.08-.45-.32-.48-.73A19.27,19.27,0,0,1,53.6,24l0-2.78-.4-.05c-.11,0-.47,0-1.08,0a9.09,9.09,0,0,0-2.4.15,6.13,6.13,0,0,0-.12,1.81c0,2.44-.2,3.8-.6,4.09a1.67,1.67,0,0,1-1.08.25c-.13,0-.36,0-.68,0a1.15,1.15,0,0,1-.72-.32,1.71,1.71,0,0,1-.16-1c0-.41,0-1.77.08-4.09q.17-4,.16-6.1c0-.9.09-1.42.28-1.56a1.52,1.52,0,0,1,1-.38l.24,0a1.74,1.74,0,0,1,.84.19,1,1,0,0,1,.56.7c0,.48.08,1.29.08,2.41l0,1.1a5.87,5.87,0,0,0,0,1.13,5.31,5.31,0,0,0,1.4.09c.77,0,1.39,0,1.84-.05a2.54,2.54,0,0,0,.72-.08,13.36,13.36,0,0,0,.12-2.79V13.94l.52-.3A2.2,2.2,0,0,1,55.28,13.36Z"/><path d="M61.48,7.52a1.45,1.45,0,0,1,1.12-.6,13.65,13.65,0,0,1,1.44,0c1.07,0,2,0,2.68,0L69,7a9.93,9.93,0,0,0,2-.12A.83.83,0,0,0,71.76,6s0-.11,0-.24c.13-1.07.2-1.64.2-1.72a.33.33,0,0,0-.32-.28l0,0a8.74,8.74,0,0,0-1.32,0c-1.28,0-2.41,0-3.4,0a10.23,10.23,0,0,0-1.12,0l-1.4,0a10.56,10.56,0,0,1-1.16,0,2.54,2.54,0,0,1-1.12-.16c-.48-.24-.72-.55-.72-.92a1.07,1.07,0,0,1,.12-.48,1.14,1.14,0,0,1,.88-.76,13.2,13.2,0,0,1,2.68-.16l4.36-.12C71,1,72.2,1,72.92,1a3.42,3.42,0,0,1,1.32.32,1.84,1.84,0,0,1,.92,1,3.76,3.76,0,0,1,.08,1A15.47,15.47,0,0,1,75.16,5a9,9,0,0,1-.4,2.68,2.11,2.11,0,0,1-1.12,1.12A3.81,3.81,0,0,1,72.52,9c-.77.08-1.79.15-3,.2l-4.28.24a1.6,1.6,0,0,0-1,.28A3.39,3.39,0,0,0,64,11.08q0,2,.24,2.16a9.53,9.53,0,0,0,2.32.12c1.23,0,2.24,0,3,0s1.19,0,1.48,0l1.84,0c.59,0,1.09,0,1.52,0a1.88,1.88,0,0,1,1.28.48.94.94,0,0,1,.32.64,1.16,1.16,0,0,1-.2.6,1.29,1.29,0,0,1-1.2.76l-1.52,0L64,16a7.16,7.16,0,0,1-2-.2,1.19,1.19,0,0,1-.72-.84A9.28,9.28,0,0,1,61.12,13c0-.8,0-1.45,0-2A12.37,12.37,0,0,1,61.48,7.52Zm4.2,12.12a2.28,2.28,0,0,1,.2-1,1.39,1.39,0,0,1,.68-.68,44.2,44.2,0,0,1,5.72-.16h2.56l7.92.08.48.32a2.16,2.16,0,0,1,.8,1.4c0,.59,0,2.28-.12,5.08a13.09,13.09,0,0,1-.28,2.56,1.77,1.77,0,0,1-.76.92,3.73,3.73,0,0,1-1.48.24H74.84a.76.76,0,0,0-.32,0c-4.24-.05-6.64-.11-7.2-.16A1.37,1.37,0,0,1,66,27.32s0,0,0,0a32.67,32.67,0,0,1-.28-4.36C65.63,21.19,65.63,20.09,65.68,19.64Zm2.92,5.52.16.36H74.6a47.44,47.44,0,0,0,6.08-.16,1,1,0,0,0,.28-.6,5.8,5.8,0,0,0,0-1l0-.92.08-2.2-.36-.08c-.24-.05-2.05-.11-5.44-.16H72.76c-1.87,0-2.91,0-3.12,0a1.94,1.94,0,0,0-1,.2,9,9,0,0,0-.2,3A5.67,5.67,0,0,0,68.6,25.16ZM83,0a1.41,1.41,0,0,1,1,.36,2.83,2.83,0,0,1,.24,1.28q0,.76,0,6.64v7.6l-.36.44a1.26,1.26,0,0,1-1,.4H82.8a1.4,1.4,0,0,1-.88-.32,2.25,2.25,0,0,1-.6-1.56l0-1.48.08-4.2L81.6,2A2.82,2.82,0,0,1,82,.4,1.7,1.7,0,0,1,83,0Z"/><ellipse class="cls-2" cx="42.18" cy="7.58" rx="15.88" ry="6.26"/><text class="cls-3" transform="translate(26.98 10.79) scale(1.17 1)">기획자</text></svg>